<?xml version="1.0" encoding="UTF-8" standalone="no"?>
<svg
   xmlns:dc="http://purl.org/dc/elements/1.1/"
   xmlns:cc="http://creativecommons.org/ns#"
   xmlns:rdf="http://www.w3.org/1999/02/22-rdf-syntax-ns#"
   xmlns:svg="http://www.w3.org/2000/svg"
   xmlns="http://www.w3.org/2000/svg"
   xmlns:sodipodi="http://sodipodi.sourceforge.net/DTD/sodipodi-0.dtd"
   xmlns:inkscape="http://www.inkscape.org/namespaces/inkscape"
   width="64"
   height="64"
   viewBox="0 0 16.933333 16.933333"
   version="1.1"
   id="svg911"
   sodipodi:docname="headericon_dark.svg"
   inkscape:version="0.92.4 (5da689c313, 2019-01-14)">
  <sodipodi:namedview
     pagecolor="#ffffff"
     bordercolor="#666666"
     borderopacity="1"
     objecttolerance="10"
     gridtolerance="10"
     guidetolerance="10"
     inkscape:pageopacity="0"
     inkscape:pageshadow="2"
     inkscape:window-width="1920"
     inkscape:window-height="1028"
     id="namedview10"
     showgrid="false"
     inkscape:zoom="3.6875"
     inkscape:cx="32"
     inkscape:cy="32"
     inkscape:window-x="-8"
     inkscape:window-y="-8"
     inkscape:window-maximized="1"
     inkscape:current-layer="svg911" />
  <defs
     id="defs905" />
  <metadata
     id="metadata908">
    <rdf:RDF>
      <cc:Work
         rdf:about="">
        <dc:format>image/svg+xml</dc:format>
        <dc:type
           rdf:resource="http://purl.org/dc/dcmitype/StillImage" />
        <dc:title />
      </cc:Work>
    </rdf:RDF>
  </metadata>
  <g
     id="layer1"
     transform="translate(-10.648969,-20.54427)"
     style="fill:#ffb380">
    <path
       style="clip-rule:evenodd;display:inline;opacity:0.23699999;fill:#ffb380;fill-rule:evenodd;stroke:none;stroke-width:0.28575003;stroke-linejoin:bevel;stroke-miterlimit:2.41420007"
       d="m 25.236301,22.164766 c -0.524709,-0.165702 -1.043879,-0.374883 -1.571965,-0.514054 -0.629906,0.0021 -1.230501,0.209589 -1.827987,0.384111 -0.862845,0.38167 -1.752583,0.709503 -2.551191,1.219724 -0.2925,0.166864 -0.584995,0.333708 -0.877494,0.500563 -0.17095,0.385504 0.172532,1.109053 0.131871,1.204913 -0.452007,-0.177381 -0.489351,-0.955501 -0.91153,-0.393318 -0.276811,0.175171 -0.47971,0.4148 -0.617704,0.711043 -0.356007,0.63301 -0.83585,1.198828 -1.148574,1.85243 -0.07304,0.537674 -0.146057,1.075347 -0.219086,1.613031 -0.01449,-0.307597 -0.02897,-0.615183 -0.04346,-0.922779 -0.480475,0.957334 -1.256279,1.74531 -1.628935,2.759298 -0.114189,0.47994 -0.05509,0.976963 -0.03957,1.464046 -0.181645,-0.03624 -0.166972,-0.603315 -0.256159,-0.24893 -0.05701,0.12457 -0.0068,0.733751 -0.156263,0.404808 -0.147486,0.0042 -0.225633,0.25467 -0.168311,0.624619 -0.01489,-0.169169 -0.04682,-0.700024 -0.169121,-0.310372 -0.03421,0.302506 -0.21258,0.651853 0.0043,0.917972 0.117456,0.214575 0.234918,0.429129 0.352375,0.643694 -0.419322,0.740716 -0.885145,1.467407 -1.255673,2.228171 0.167453,0.0266 0.486642,-0.06682 0.656708,-0.18333 0.312332,-0.578712 0.599163,-1.179052 0.90889,-1.763137 0.327214,0.04221 0.676445,0.227888 0.995879,0.13385 -0.03054,-0.256975 0.129374,-0.107654 0.426646,-0.11794 0.151576,0.01676 0.744735,-0.06662 0.326247,-0.08306 -0.121467,-0.01173 -0.681863,-0.30435 -0.418778,-0.2224 0.282327,0.0862 0.591813,0.148116 0.885408,0.09448 -0.356615,-0.173288 0.215415,-0.116832 0.342374,-0.247424 0.126199,-0.1144 -0.05866,-0.05373 0.259904,-0.231763 0.289219,-0.247957 -0.01455,-0.259301 -0.235224,-0.348551 0.288332,0.106774 0.501651,-0.177046 0.722661,-0.310331 0.408613,-0.450831 0.829761,-0.892205 1.119645,-1.432664 0.151575,-0.267366 0.387514,-0.471152 0.581522,-0.706561 -0.58655,-0.01665 -1.129629,-0.27323 -1.642031,-0.53694 0.588082,0.206552 1.238031,0.256891 1.848953,0.142261 0.241753,-0.03299 0.441167,-0.131493 0.618582,-0.294472 1.028962,-0.636697 2.060303,-1.276903 3.10734,-1.878815 0.492329,-0.39647 1.043508,-0.736306 1.476574,-1.196449 0.29175,-0.253131 0.140287,-0.294693 -0.175519,-0.280856 -0.418835,-0.02032 -0.804258,-0.187426 -1.196952,-0.318166 0.613959,0.04001 1.234094,0.127273 1.846982,0.0353 0.08815,-0.150787 0.513717,-0.430543 0.378233,-0.49587 -0.383734,-0.02346 -0.755,-0.112441 -1.085792,-0.313264 0.476903,0.01707 0.947454,-0.02283 1.408164,-0.151331 0.306393,-0.02064 0.474431,-0.334924 0.639216,-0.559387 0.241872,-0.295425 0.30263,-0.684061 0.311922,-1.054398 0.0089,-0.315285 -0.04193,-0.616723 -0.199114,-0.893598 -0.12692,-0.262118 -0.330499,-0.510525 -0.562293,-0.685476 -0.130542,-0.0796 -0.261083,-0.159145 -0.391609,-0.238791 z m -6.218391,5.141693 c 0.269276,0.410045 -0.687747,0.731154 -0.856859,1.126881 -1.17837,1.242107 -2.203634,2.62372 -3.138149,4.054269 -0.533312,-0.14886 0.373697,-0.857347 0.482608,-1.196869 1.02286,-1.425438 2.114948,-2.836379 3.447213,-3.981861 l 0.02326,-0.0042 0.04187,0.0021 z"
       id="path1136"
       inkscape:connector-curvature="0" />
    <path
       style="display:inline;opacity:0.23699999;vector-effect:none;fill:#ffb380;fill-opacity:1;stroke:none;stroke-width:0.26458332;stroke-linecap:round;stroke-linejoin:round;stroke-miterlimit:4;stroke-dasharray:none;stroke-dashoffset:0;stroke-opacity:1;paint-order:markers stroke fill"
       d="m 24.837888,30.367845 a 2.444398,2.444398 0 0 1 -2.444398,2.444402 2.444398,2.444398 0 0 1 2.444398,2.444402 2.444398,2.444398 0 0 1 2.444398,-2.444402 2.444398,2.444398 0 0 1 -2.444398,-2.444402 z"
       id="rect1255"
       inkscape:connector-curvature="0" />
    <path
       style="display:inline;opacity:0.23699999;vector-effect:none;fill:#ffb380;fill-opacity:1;stroke:none;stroke-width:0.26458332;stroke-linecap:round;stroke-linejoin:round;stroke-miterlimit:4;stroke-dasharray:none;stroke-dashoffset:0;stroke-opacity:1;paint-order:markers stroke fill"
       d="m 12.615898,23.034661 a 1.8332929,1.8332929 0 0 1 -1.833294,1.833283 1.8332929,1.8332929 0 0 1 1.833294,1.833304 1.8332929,1.8332929 0 0 1 1.833292,-1.833304 1.8332929,1.8332929 0 0 1 -1.833292,-1.833283 z"
       id="rect1255-0"
       inkscape:connector-curvature="0" />
    <path
       style="display:inline;opacity:0.23699999;vector-effect:none;fill:#ffb380;fill-opacity:1;stroke:none;stroke-width:0.26458332;stroke-linecap:round;stroke-linejoin:round;stroke-miterlimit:4;stroke-dasharray:none;stroke-dashoffset:0;stroke-opacity:1;paint-order:markers stroke fill"
       d="m 19.949092,34.645551 a 0.61109971,0.61109971 0 0 1 -0.611099,0.611098 0.61109971,0.61109971 0 0 1 0.611099,0.611098 0.61109971,0.61109971 0 0 1 0.6111,-0.611098 0.61109971,0.61109971 0 0 1 -0.6111,-0.611098 z"
       id="rect1255-3"
       inkscape:connector-curvature="0" />
  </g>
</svg>
